<?xml version="1.0" encoding="UTF-8"?>
<svg xmlns="http://www.w3.org/2000/svg" width="387" height="349" viewBox="80.9 94.1 387.0 349.0">
  <path d="M114.6,300.4 C114.6,300.5 114.7,300.6 114.5,300.9 C114.4,301.2 114.1,301.6 113.8,302.3 C113.6,302.9 113.2,304.3 113.0,304.8 C112.9,305.4 113.1,305.0 113.0,305.4 C112.9,305.8 112.6,306.4 112.5,307.1 C112.3,307.9 112.2,309.2 112.2,309.8 C112.2,310.4 112.3,310.3 112.3,310.7 C112.3,311.1 112.1,311.9 112.1,312.3 C112.1,312.8 112.2,313.3 112.3,313.5 C112.3,313.7 112.3,313.7 112.2,313.8 C112.2,313.9 112.2,313.6 112.1,314.1 C111.9,314.6 111.4,315.8 111.3,316.7 C111.1,317.6 111.0,318.8 111.0,319.4 C111.0,320.0 111.1,319.8 111.1,320.3 C111.1,320.7 110.9,321.6 110.9,322.0 C110.9,322.3 111.0,322.2 111.0,322.6 C111.0,323.1 110.8,324.1 110.8,324.5 C110.8,324.8 110.9,324.3 110.8,324.7 C110.8,325.1 110.6,326.6 110.6,327.0 C110.6,327.4 110.6,327.1 110.6,327.2 C110.6,327.3 110.7,327.4 110.6,327.6 C110.5,327.8 110.4,327.8 110.2,328.4 C110.0,329.0 109.5,330.5 109.3,331.2 C109.2,331.8 109.3,332.1 109.2,332.4 C109.1,332.7 109.1,332.3 108.9,332.9 C108.8,333.4 108.2,335.1 108.1,335.8 C107.9,336.4 108.0,336.5 108.0,336.9 C107.9,337.3 107.7,337.5 107.6,338.1 C107.5,338.8 107.4,340.2 107.3,340.6 C107.3,341.0 107.4,340.1 107.3,340.6 C107.3,341.1 107.1,343.2 107.0,343.7 C107.0,344.3 107.0,343.8 107.0,343.8 C107.0,343.8 107.1,343.7 107.0,343.8 C107.0,343.9 106.9,343.9 106.7,344.5 C106.4,345.1 105.9,346.5 105.7,347.6 C105.5,348.7 105.4,350.2 105.4,350.8 C105.3,351.5 105.4,351.3 105.4,351.4 C105.4,351.5 105.4,351.4 105.4,351.5 C105.4,351.5 105.6,351.0 105.4,351.5 C105.2,352.0 104.6,353.9 104.4,354.7 C104.3,355.4 104.4,355.7 104.3,355.9 C104.3,356.2 104.4,355.5 104.3,356.1 C104.1,356.6 103.5,358.5 103.3,359.2 C103.1,360.0 103.3,359.9 103.1,360.6 C103.0,361.4 102.4,362.9 102.2,363.8 C102.0,364.8 102.1,365.5 101.9,366.2 C101.8,367.0 101.4,367.6 101.3,368.5 C101.1,369.4 101.0,371.3 100.9,371.9 C100.9,372.4 101.0,371.6 100.9,372.0 C100.9,372.5 100.7,373.7 100.7,374.3 C100.7,374.9 100.8,375.2 100.8,375.6 C100.9,376.0 100.7,376.3 100.7,376.8 C100.7,377.3 100.9,378.2 100.9,378.6 C100.9,379.1 100.8,378.8 100.8,379.3 C100.9,379.9 101.0,381.4 101.1,381.8 C101.1,382.2 101.1,381.7 101.1,381.8 C101.1,381.9 101.2,382.1 101.1,382.3 C101.1,382.6 101.0,382.6 100.9,383.2 C100.8,383.9 100.6,385.8 100.5,386.4 C100.5,387.1 100.6,386.7 100.6,386.9 C100.5,387.2 100.4,387.2 100.3,387.9 C100.2,388.6 100.0,390.5 100.0,391.1 C99.9,391.6 100.0,391.1 100.0,391.3 C100.0,391.4 100.0,391.9 99.9,392.2 C99.9,392.4 99.8,392.5 99.8,392.6 C99.7,392.8 99.8,392.7 99.7,393.1 C99.6,393.4 99.3,394.1 99.2,394.8 C99.0,395.6 98.9,397.0 98.9,397.8 C98.9,398.6 99.0,399.2 99.1,399.6 C99.1,400.0 99.0,399.7 99.0,400.3 C99.0,400.9 99.2,402.7 99.3,403.2 C99.3,403.7 99.3,403.3 99.4,403.4 C99.4,403.5 99.4,403.6 99.4,403.8 C99.4,404.0 99.2,404.0 99.2,404.6 C99.1,405.2 98.9,406.7 98.9,407.4 C98.9,408.1 99.0,408.3 99.0,408.7 C99.0,409.0 98.9,408.8 98.8,409.4 C98.7,409.9 98.5,411.1 98.5,412.0 C98.5,412.9 98.6,413.8 98.8,414.6 C99.0,415.5 99.2,416.3 99.6,417.2 C99.9,418.0 100.3,418.8 100.8,419.5 C101.3,420.2 101.9,420.9 102.5,421.5 C103.1,422.1 103.8,422.7 104.5,423.2 C105.2,423.7 106.0,424.1 106.8,424.4 C107.7,424.8 108.5,425.0 109.4,425.2 C110.2,425.4 111.1,425.5 112.0,425.5 C112.9,425.5 113.8,425.4 114.6,425.2 C115.5,425.0 116.3,424.8 117.2,424.4 C118.0,424.1 118.8,423.7 119.5,423.2 C120.2,422.7 120.9,422.1 121.5,421.5 C122.1,420.9 122.8,420.0 123.2,419.5 C123.6,419.0 123.6,418.7 123.8,418.4 C124.0,418.1 124.1,418.1 124.5,417.6 C124.8,417.0 125.4,416.0 125.7,415.2 C126.1,414.4 126.4,413.1 126.5,412.6 C126.7,412.1 126.4,412.6 126.6,412.3 C126.7,412.0 127.1,411.5 127.3,410.8 C127.6,410.1 128.0,409.0 128.2,408.1 C128.3,407.3 128.4,406.2 128.4,405.7 C128.4,405.3 128.4,406.0 128.4,405.7 C128.5,405.3 128.6,403.8 128.6,403.4 C128.7,403.0 128.7,403.3 128.7,403.2 C128.7,403.1 128.7,403.0 128.8,402.7 C128.9,402.4 129.2,402.0 129.3,401.6 C129.5,401.2 129.6,400.7 129.7,400.3 C129.9,400.0 130.0,399.9 130.2,399.5 C130.4,399.0 130.5,398.1 130.8,397.4 C131.1,396.6 131.7,396.0 132.0,395.2 C132.4,394.3 132.8,392.7 132.9,392.1 C133.1,391.5 132.9,391.7 133.0,391.5 C133.1,391.2 133.2,391.4 133.4,390.7 C133.6,390.1 134.1,388.5 134.3,387.6 C134.5,386.7 134.5,385.6 134.6,385.2 C134.6,384.8 134.5,385.7 134.6,385.1 C134.6,384.6 134.9,382.4 134.9,381.8 C135.0,381.3 134.9,382.2 134.9,381.8 C135.0,381.4 135.1,379.9 135.2,379.3 C135.2,378.8 135.1,379.1 135.1,378.6 C135.1,378.2 135.3,377.3 135.3,376.8 C135.3,376.3 135.2,375.9 135.2,375.6 C135.1,375.3 135.1,375.5 135.2,375.1 C135.3,374.7 135.7,373.8 135.8,373.0 C136.0,372.3 135.9,371.5 136.1,370.7 C136.2,370.0 136.6,369.2 136.8,368.4 C136.9,367.6 136.8,366.8 137.0,366.0 C137.1,365.3 137.5,364.6 137.7,363.8 C137.8,363.0 137.8,361.9 137.9,361.1 C138.1,360.3 138.4,360.0 138.5,359.2 C138.7,358.3 138.8,356.7 138.9,355.9 C138.9,355.0 138.7,354.5 138.7,354.1 C138.7,353.7 138.7,353.5 138.8,353.4 C138.8,353.2 138.7,353.4 138.7,353.2 C138.8,353.0 139.0,352.7 139.1,352.0 C139.2,351.2 139.4,349.7 139.4,348.7 C139.4,347.8 139.2,346.8 139.2,346.4 C139.2,346.0 139.3,346.7 139.2,346.2 C139.2,345.8 139.0,344.2 139.0,343.8 C138.9,343.4 139.0,344.3 139.0,343.7 C138.9,343.2 138.7,341.1 138.7,340.6 C138.6,340.1 138.7,340.6 138.7,340.6 C138.7,340.6 138.6,340.6 138.7,340.5 C138.7,340.3 138.8,340.2 138.9,339.6 C139.0,338.9 139.2,337.2 139.2,336.6 C139.2,336.0 139.1,336.1 139.1,335.9 C139.2,335.6 139.3,335.5 139.4,334.9 C139.5,334.2 139.7,332.8 139.7,332.0 C139.7,331.2 139.6,330.5 139.5,330.1 C139.5,329.7 139.6,330.0 139.6,329.5 C139.6,329.0 139.4,327.7 139.4,327.2 C139.3,326.8 139.4,327.4 139.4,327.0 C139.4,326.6 139.2,325.1 139.2,324.7 C139.1,324.3 139.2,324.8 139.2,324.5 C139.2,324.1 139.0,323.1 139.0,322.6 C139.0,322.2 139.1,322.2 139.1,322.0 C139.1,321.7 139.0,321.6 139.0,321.3 C139.1,321.0 139.3,320.6 139.4,320.0 C139.5,319.3 139.7,317.7 139.7,317.2 C139.7,316.7 139.6,317.4 139.7,317.0 C139.7,316.6 139.9,315.4 139.9,314.8 C139.9,314.3 139.8,313.9 139.7,313.5 C139.7,313.1 139.9,312.7 139.9,312.3 C139.9,312.0 139.7,311.8 139.8,311.5 C139.8,311.2 140.0,311.2 140.2,310.7 C140.4,310.1 140.9,308.7 141.0,308.1 C141.1,307.5 141.0,307.4 141.1,307.1 C141.2,306.7 141.4,306.8 141.6,306.2 C141.8,305.6 142.2,304.5 142.3,303.7 C142.5,302.8 142.6,301.6 142.6,301.0 C142.6,300.4 142.5,300.2 142.5,299.8 C142.5,299.4 142.5,299.1 142.6,298.6 C142.7,298.0 143.1,297.3 143.2,296.5 C143.4,295.7 143.4,294.4 143.5,293.9 C143.5,293.4 143.4,293.8 143.4,293.5 C143.5,293.1 143.8,292.5 143.9,291.8 C144.1,291.1 144.2,289.8 144.2,289.2 C144.2,288.6 144.1,288.7 144.1,288.3 C144.1,287.9 144.2,287.1 144.3,286.8 C144.3,286.4 144.2,286.4 144.2,286.2 C144.2,286.1 144.2,286.0 144.3,285.8 C144.4,285.6 144.6,285.5 144.8,284.9 C145.0,284.4 145.4,283.4 145.5,282.6 C145.7,281.7 145.7,280.6 145.8,280.1 C145.8,279.6 145.6,279.9 145.7,279.6 C145.8,279.2 146.1,278.5 146.2,277.9 C146.4,277.2 146.4,276.0 146.5,275.6 C146.5,275.2 146.4,276.0 146.5,275.6 C146.6,275.2 147.0,274.1 147.2,273.3 C147.3,272.5 147.4,271.5 147.4,270.8 C147.4,270.2 147.3,270.0 147.3,269.6 C147.3,269.2 147.4,268.7 147.4,268.3 C147.4,268.0 147.3,267.8 147.3,267.4 C147.3,267.0 147.5,266.3 147.5,265.8 C147.5,265.3 147.4,264.8 147.3,264.3 C147.3,263.9 147.4,263.6 147.5,263.3 C147.5,263.0 147.2,262.9 147.4,262.6 C147.5,262.2 148.0,261.8 148.3,261.5 C148.5,261.1 148.5,260.9 148.8,260.6 C149.0,260.2 149.3,260.0 149.7,259.4 C150.0,258.9 150.6,258.0 150.9,257.2 C151.2,256.4 151.5,255.5 151.6,254.7 C151.8,254.0 151.8,253.1 151.8,252.7 C151.9,252.3 151.9,252.5 152.0,252.3 C152.0,252.1 151.9,251.6 152.0,251.4 C152.1,251.1 152.4,251.0 152.6,250.7 C152.7,250.5 152.9,250.0 153.1,249.6 C153.4,249.3 153.6,249.1 153.8,248.8 C154.0,248.5 154.2,248.0 154.4,247.7 C154.6,247.4 154.8,247.3 155.1,246.9 C155.3,246.5 155.7,245.6 155.9,245.3 C156.1,245.0 156.0,245.4 156.3,244.9 C156.5,244.4 157.3,243.1 157.6,242.4 C157.9,241.6 158.0,241.0 158.2,240.6 C158.3,240.2 158.3,240.5 158.4,240.2 C158.5,239.8 158.8,238.9 158.8,238.7 C158.9,238.4 158.8,238.8 158.9,238.6 C159.0,238.5 159.1,238.1 159.3,237.7 C159.6,237.4 159.9,237.2 160.2,236.7 C160.5,236.2 161.0,235.3 161.1,234.9 C161.3,234.6 161.0,235.2 161.3,234.7 C161.6,234.2 162.4,232.9 162.8,232.0 C163.2,231.0 163.5,229.6 163.7,228.9 C163.9,228.3 163.8,228.0 163.8,227.8 C163.9,227.5 163.8,228.0 164.0,227.4 C164.2,226.9 164.8,224.9 164.9,224.4 C165.1,223.8 164.9,224.1 165.0,223.9 C165.1,223.7 165.3,223.3 165.5,223.0 C165.6,222.7 165.7,222.1 165.8,221.9 C165.9,221.7 165.6,222.3 165.9,221.8 C166.2,221.3 167.1,219.9 167.5,218.8 C167.9,217.8 168.3,216.2 168.5,215.6 C168.6,215.0 168.4,215.5 168.5,215.3 C168.6,215.1 168.9,214.6 169.0,214.4 C169.1,214.2 168.9,214.5 169.1,214.2 C169.2,213.8 169.7,213.2 170.0,212.3 C170.4,211.5 170.8,210.2 171.0,209.1 C171.2,208.0 171.3,206.3 171.3,205.7 C171.4,205.1 171.3,205.5 171.3,205.4 C171.3,205.4 171.3,205.7 171.3,205.4 C171.4,205.1 171.7,204.0 171.9,203.6 C172.0,203.3 171.9,203.8 172.1,203.2 C172.3,202.5 173.0,200.4 173.1,199.8 C173.3,199.2 173.1,199.9 173.1,199.7 C173.2,199.5 173.4,199.5 173.6,198.8 C173.9,198.1 174.5,196.1 174.7,195.4 C174.9,194.7 174.7,194.6 174.8,194.4 C174.8,194.2 174.8,194.3 174.9,194.2 C174.9,194.2 174.8,194.3 174.9,194.1 C175.0,194.0 175.1,194.1 175.5,193.4 C175.8,192.8 176.7,191.3 177.2,190.2 C177.7,189.1 178.0,187.5 178.2,186.7 C178.4,185.9 178.2,185.9 178.4,185.3 C178.5,184.6 179.0,183.2 179.2,182.8 C179.3,182.3 179.0,183.2 179.3,182.6 C179.6,182.0 180.7,180.0 181.1,179.2 C181.4,178.5 181.3,178.5 181.4,178.2 C181.6,177.8 181.9,177.3 182.0,177.1 C182.1,176.9 181.9,177.2 182.0,177.0 C182.1,176.9 182.1,177.1 182.5,176.4 C182.9,175.7 184.0,173.7 184.3,173.1 C184.6,172.4 184.3,172.9 184.5,172.6 C184.6,172.2 185.1,171.4 185.3,171.0 C185.5,170.5 185.6,170.1 185.7,169.7 C185.8,169.3 186.0,169.1 186.2,168.8 C186.3,168.5 186.3,168.2 186.5,167.8 C186.6,167.5 186.9,167.0 187.1,166.7 C187.2,166.3 187.3,166.0 187.4,165.6 C187.6,165.3 187.7,165.3 188.0,164.5 C188.3,163.8 188.9,161.7 189.1,161.0 C189.2,160.3 188.9,160.9 189.1,160.4 C189.3,159.9 190.1,158.6 190.4,158.0 C190.7,157.4 190.7,156.9 190.8,156.6 C191.0,156.3 191.2,156.4 191.4,156.2 C191.6,156.0 191.6,155.8 191.9,155.5 C192.2,155.3 192.5,155.2 193.0,154.6 C193.5,154.1 194.4,153.1 194.9,152.3 C195.5,151.5 196.0,150.6 196.3,149.7 C196.7,148.7 197.1,147.3 197.2,146.8 C197.4,146.3 197.2,146.8 197.2,146.7 C197.2,146.7 197.1,146.6 197.3,146.5 C197.5,146.3 198.2,146.1 198.5,145.8 C198.9,145.6 199.2,145.3 199.4,145.1 C199.5,145.0 199.3,145.1 199.5,145.1 C199.6,145.0 199.9,145.0 200.4,144.8 C200.9,144.6 201.8,144.1 202.5,143.7 C203.2,143.2 203.8,142.7 204.4,142.1 C204.9,141.6 205.5,140.7 205.8,140.4 C206.1,140.1 205.7,140.6 206.0,140.3 C206.3,140.0 207.4,139.1 207.8,138.8 C208.1,138.5 207.8,138.7 208.0,138.6 C208.2,138.4 208.6,138.0 208.9,137.8 C209.2,137.6 209.3,137.7 209.8,137.3 C210.2,137.0 211.2,136.2 211.5,135.9 C211.9,135.6 211.6,135.8 211.7,135.8 C211.7,135.7 211.5,135.8 211.8,135.8 C212.1,135.7 213.1,135.3 213.5,135.2 C213.8,135.1 213.7,135.3 214.1,135.2 C214.4,135.1 215.0,134.8 215.4,134.8 C215.7,134.8 216.0,135.0 216.2,135.0 C216.3,135.1 216.2,135.1 216.4,135.2 C216.7,135.3 217.4,135.3 217.7,135.6 C218.1,135.8 218.4,136.4 218.6,136.7 C218.9,136.9 218.8,136.7 219.1,137.0 C219.4,137.3 220.0,138.2 220.3,138.5 C220.6,138.9 220.6,138.7 220.9,139.0 C221.2,139.3 221.7,140.1 222.0,140.4 C222.3,140.7 222.3,140.6 222.6,140.9 C222.9,141.2 223.5,142.0 223.7,142.2 C224.0,142.5 223.8,142.2 224.0,142.4 C224.1,142.6 224.4,143.2 224.6,143.5 C224.7,143.9 224.7,144.1 224.8,144.5 C225.0,144.8 225.3,145.3 225.5,145.6 C225.6,146.0 225.5,146.1 225.8,146.6 C226.0,147.1 226.4,148.1 226.9,148.7 C227.3,149.4 228.1,150.2 228.4,150.6 C228.7,150.9 228.5,150.5 228.6,150.7 C228.7,151.0 229.1,151.6 229.2,151.9 C229.4,152.2 229.3,152.2 229.4,152.6 C229.6,153.0 230.2,153.9 230.3,154.3 C230.5,154.6 230.3,154.3 230.5,154.7 C230.6,155.1 231.2,156.1 231.4,156.5 C231.6,156.8 231.4,156.5 231.5,156.8 C231.6,157.1 232.1,157.8 232.2,158.2 C232.4,158.5 232.4,158.4 232.5,158.9 C232.5,159.4 232.5,160.4 232.7,161.2 C232.8,162.0 233.2,163.0 233.4,163.5 C233.6,164.1 233.8,164.2 233.9,164.5 C234.1,164.9 234.0,165.1 234.3,165.7 C234.5,166.2 235.0,167.2 235.4,167.9 C235.9,168.5 236.6,169.4 237.0,169.8 C237.4,170.2 237.4,170.0 237.6,170.2 C237.7,170.4 238.0,170.9 238.0,171.1 C238.1,171.4 238.0,171.1 238.1,171.6 C238.2,172.0 238.6,173.3 238.8,173.9 C239.0,174.4 239.3,174.7 239.4,175.0 C239.5,175.3 239.5,175.3 239.5,175.5 C239.6,175.6 239.5,175.5 239.6,176.0 C239.7,176.4 240.0,177.6 240.3,178.3 C240.5,178.9 241.0,179.5 241.1,179.9 C241.3,180.2 241.2,180.1 241.3,180.4 C241.4,180.6 241.7,181.0 241.8,181.4 C241.9,181.7 241.9,182.2 241.9,182.5 C242.0,182.9 242.2,183.1 242.2,183.5 C242.3,183.9 242.3,184.4 242.4,184.9 C242.5,185.3 242.8,186.0 242.8,186.4 C242.9,186.8 242.7,186.7 242.7,187.2 C242.8,187.8 242.8,188.9 243.0,189.6 C243.1,190.3 243.4,191.1 243.5,191.5 C243.6,191.8 243.5,191.6 243.6,191.9 C243.6,192.2 243.9,193.0 244.0,193.2 C244.0,193.5 244.0,193.2 244.0,193.4 C244.0,193.6 243.9,193.9 243.9,194.4 C243.9,194.8 244.0,195.8 244.1,196.1 C244.1,196.5 244.0,196.4 244.0,196.5 C244.0,196.7 244.0,196.4 243.8,196.9 C243.7,197.3 243.3,198.4 243.2,199.1 C243.0,199.9 243.0,201.0 242.9,201.4 C242.9,201.7 243.0,201.1 242.9,201.5 C242.7,201.9 242.3,203.0 242.2,203.7 C242.0,204.5 242.0,205.6 242.0,206.1 C241.9,206.5 242.1,206.1 242.0,206.4 C241.9,206.7 241.7,207.6 241.5,207.9 C241.4,208.2 241.4,207.9 241.3,208.4 C241.1,208.8 240.8,209.8 240.6,210.6 C240.5,211.3 240.4,212.5 240.4,212.9 C240.4,213.2 240.4,212.9 240.4,212.9 C240.4,212.9 240.5,212.7 240.3,213.0 C240.1,213.4 239.4,214.6 239.2,215.0 C239.0,215.5 239.2,215.3 239.1,215.6 C238.9,216.0 238.5,216.7 238.2,217.1 C238.0,217.6 238.0,218.2 237.8,218.5 C237.7,218.9 237.6,218.8 237.4,219.3 C237.2,219.8 236.9,220.9 236.7,221.5 C236.6,222.1 236.7,222.7 236.6,223.1 C236.5,223.5 236.4,223.3 236.2,223.8 C236.0,224.3 235.6,225.6 235.5,226.0 C235.4,226.4 235.6,226.1 235.5,226.4 C235.4,226.6 235.3,227.2 235.1,227.5 C235.0,227.8 234.8,227.8 234.6,228.2 C234.3,228.7 233.7,229.9 233.5,230.2 C233.3,230.6 233.6,230.0 233.5,230.3 C233.3,230.6 232.7,231.8 232.5,232.2 C232.3,232.5 232.5,231.9 232.3,232.3 C232.1,232.7 231.5,233.9 231.3,234.3 C231.0,234.8 231.2,234.9 231.0,235.2 C230.8,235.6 230.4,235.8 230.1,236.3 C229.7,236.9 229.2,238.0 229.0,238.4 C228.8,238.8 229.1,238.3 228.9,238.6 C228.7,238.9 228.1,240.1 227.9,240.5 C227.7,240.9 228.0,240.5 227.8,240.8 C227.6,241.1 227.1,242.2 226.9,242.5 C226.7,242.8 227.1,242.2 226.9,242.5 C226.7,242.9 226.0,244.0 225.8,244.6 C225.5,245.2 225.5,245.7 225.3,246.0 C225.2,246.4 225.1,246.2 224.8,246.7 C224.5,247.1 223.9,248.4 223.7,248.8 C223.5,249.2 223.7,248.9 223.5,249.2 C223.4,249.6 222.9,250.5 222.7,250.9 C222.5,251.3 222.6,251.3 222.4,251.6 C222.3,252.0 221.9,252.5 221.7,253.0 C221.5,253.5 221.4,254.1 221.3,254.5 C221.1,254.8 221.0,255.0 220.9,255.2 C220.8,255.3 221.0,255.0 220.8,255.3 C220.7,255.7 220.0,256.9 219.8,257.2 C219.6,257.6 219.9,257.1 219.8,257.5 C219.6,257.8 218.9,259.0 218.8,259.3 C218.6,259.6 218.9,259.2 218.7,259.5 C218.5,259.9 217.9,261.0 217.7,261.4 C217.5,261.7 217.8,261.4 217.6,261.7 C217.4,262.1 216.8,263.1 216.7,263.5 C216.5,263.8 216.8,263.3 216.6,263.7 C216.4,264.0 215.8,265.2 215.6,265.5 C215.4,265.9 215.7,265.6 215.5,266.0 C215.3,266.3 214.8,267.1 214.6,267.6 C214.4,268.1 214.3,268.8 214.2,269.0 C214.1,269.3 214.2,269.0 214.1,269.1 C214.0,269.3 213.8,269.3 213.4,269.7 C213.0,270.1 212.3,270.9 211.9,271.5 C211.5,272.2 211.0,273.2 210.8,273.6 C210.6,273.9 210.8,273.7 210.8,273.7 C210.8,273.7 210.9,273.5 210.7,273.7 C210.5,274.0 209.8,274.8 209.6,275.1 C209.3,275.5 209.4,275.2 209.0,275.6 C208.7,276.0 208.0,276.8 207.6,277.3 C207.2,277.9 206.9,278.7 206.7,279.0 C206.5,279.3 206.7,279.0 206.7,279.1 C206.6,279.1 206.5,279.1 206.2,279.4 C205.9,279.8 205.2,280.6 204.8,281.2 C204.4,281.8 204.1,282.6 203.8,282.9 C203.6,283.3 203.5,283.1 203.4,283.3 C203.2,283.5 203.2,283.6 202.9,283.9 C202.6,284.2 202.0,284.5 201.5,285.0 C201.1,285.5 200.5,286.2 200.1,286.8 C199.7,287.4 199.2,288.4 199.0,288.7 C198.9,289.1 199.1,288.5 199.0,288.8 C198.8,289.1 198.2,290.3 198.0,290.7 C197.7,291.1 197.8,290.7 197.6,291.0 C197.4,291.2 197.0,291.7 196.8,292.0 C196.5,292.3 196.3,292.3 195.9,292.8 C195.5,293.2 194.9,293.9 194.4,294.5 C194.0,295.1 193.6,296.1 193.4,296.5 C193.2,296.9 193.5,296.5 193.3,296.8 C193.1,297.2 192.5,298.2 192.3,298.6 C192.1,299.0 192.3,299.0 192.1,299.3 C192.0,299.7 191.5,300.4 191.4,300.7 C191.2,301.0 191.3,301.0 191.2,301.4 C191.0,301.7 190.6,302.2 190.4,302.8 C190.2,303.4 189.9,304.2 189.7,305.0 C189.6,305.7 189.5,306.6 189.5,307.2 C189.5,307.8 189.7,308.2 189.7,308.6 C189.7,309.0 189.5,309.1 189.6,309.7 C189.6,310.3 189.6,311.2 189.8,311.9 C189.9,312.7 190.2,313.5 190.4,314.1 C190.6,314.6 190.9,314.9 191.0,315.2 C191.2,315.6 191.2,315.8 191.3,316.2 C191.5,316.6 192.0,317.3 192.1,317.7 C192.3,318.1 192.1,318.0 192.2,318.5 C192.3,319.0 192.7,320.2 192.8,320.6 C193.0,321.0 192.9,320.7 193.1,321.0 C193.2,321.4 193.3,322.2 193.6,322.8 C193.9,323.4 194.2,324.2 194.6,324.8 C195.0,325.4 195.8,326.1 196.0,326.4 C196.3,326.8 195.9,326.3 196.1,326.6 C196.4,327.0 197.0,327.9 197.5,328.3 C198.0,328.8 198.7,329.3 199.0,329.5 C199.3,329.8 199.1,329.7 199.4,330.0 C199.7,330.3 200.6,330.9 200.9,331.2 C201.2,331.5 200.9,331.4 201.3,331.7 C201.6,332.0 202.3,332.7 202.9,333.1 C203.5,333.5 204.4,333.9 204.8,334.1 C205.2,334.3 205.3,334.2 205.6,334.3 C205.8,334.4 205.9,334.4 206.2,334.6 C206.4,334.9 206.8,335.5 207.1,335.7 C207.3,336.0 207.3,335.8 207.5,336.1 C207.8,336.4 208.3,337.1 208.8,337.6 C209.2,338.1 210.1,338.7 210.5,339.0 C210.8,339.2 210.6,339.0 210.9,339.2 C211.2,339.5 211.8,340.0 212.4,340.4 C212.9,340.8 213.8,341.2 214.3,341.4 C214.8,341.7 215.1,341.7 215.4,341.8 C215.6,341.8 215.5,341.8 215.7,341.9 C215.8,342.0 216.0,342.3 216.4,342.6 C216.9,342.8 217.9,343.3 218.3,343.5 C218.6,343.7 218.2,343.6 218.4,343.7 C218.7,343.8 219.2,344.0 219.5,344.2 C219.8,344.5 219.9,344.8 220.3,345.3 C220.8,345.7 221.5,346.3 222.1,346.7 C222.8,347.2 223.7,347.6 224.0,347.8 C224.4,347.9 223.8,347.7 224.2,347.9 C224.5,348.1 225.9,348.8 226.2,349.0 C226.6,349.2 226.0,348.8 226.3,349.0 C226.6,349.2 227.8,349.8 228.1,350.0 C228.5,350.2 227.9,349.9 228.3,350.1 C228.6,350.3 229.9,351.0 230.4,351.2 C230.8,351.4 230.5,351.2 230.9,351.4 C231.2,351.5 232.0,352.0 232.5,352.2 C232.9,352.4 233.0,352.3 233.3,352.5 C233.7,352.6 234.2,353.0 234.6,353.1 C234.9,353.3 235.1,353.3 235.4,353.4 C235.8,353.5 236.2,353.8 236.4,353.9 C236.7,354.1 236.3,353.9 236.7,354.1 C237.1,354.3 238.2,355.0 238.7,355.2 C239.2,355.5 239.4,355.4 239.7,355.5 C240.1,355.7 240.5,356.0 240.9,356.1 C241.2,356.3 241.5,356.3 241.8,356.4 C242.2,356.6 242.4,356.8 243.0,357.1 C243.6,357.3 244.6,357.6 245.2,357.7 C245.7,357.8 246.1,357.8 246.5,357.8 C246.9,357.9 246.9,358.1 247.5,358.1 C248.0,358.2 249.0,358.3 249.7,358.4 C250.3,358.4 250.8,358.2 251.2,358.2 C251.7,358.2 252.0,358.5 252.3,358.5 C252.6,358.6 252.6,358.5 252.9,358.6 C253.3,358.7 253.9,359.0 254.6,359.1 C255.2,359.2 256.2,359.3 256.8,359.3 C257.3,359.3 257.5,359.2 257.9,359.2 C258.3,359.2 258.9,359.3 259.3,359.3 C259.7,359.3 260.1,359.2 260.5,359.2 C260.9,359.2 261.4,359.3 261.8,359.3 C262.2,359.4 262.6,359.2 262.9,359.2 C263.3,359.2 263.6,359.3 263.9,359.3 C264.1,359.4 264.0,359.5 264.5,359.7 C265.0,359.8 266.1,360.2 266.7,360.3 C267.2,360.5 267.7,360.4 267.9,360.5 C268.1,360.5 267.8,360.4 267.9,360.5 C268.1,360.6 268.4,360.8 269.0,361.0 C269.5,361.2 270.5,361.6 271.2,361.7 C272.0,361.9 273.1,361.9 273.5,361.9 C274.0,362.0 273.7,361.9 274.1,361.9 C274.5,361.9 275.7,362.1 276.1,362.1 C276.5,362.1 276.1,362.0 276.5,362.0 C277.0,362.1 278.1,362.2 278.6,362.2 C279.1,362.2 279.2,362.1 279.6,362.1 C280.0,362.1 280.4,362.3 281.1,362.3 C281.7,362.3 282.7,362.2 283.5,362.0 C284.2,361.9 285.4,361.5 285.8,361.3 C286.2,361.2 285.5,361.3 285.8,361.3 C286.2,361.3 287.3,361.1 287.7,361.1 C288.0,361.1 287.8,361.2 288.2,361.2 C288.6,361.1 289.9,361.0 290.3,361.0 C290.7,360.9 290.3,361.0 290.7,361.0 C291.2,361.0 292.3,360.9 293.1,360.8 C293.8,360.6 294.6,360.4 295.3,360.1 C296.0,359.8 296.9,359.2 297.4,359.0 C297.8,358.7 297.7,358.7 298.0,358.5 C298.3,358.3 298.8,358.1 299.3,357.8 C299.8,357.4 300.7,356.6 301.1,356.3 C301.4,356.0 301.1,356.2 301.4,356.0 C301.6,355.7 302.3,355.2 302.6,355.0 C302.8,354.8 302.6,355.1 302.9,354.8 C303.2,354.6 304.0,354.0 304.5,353.5 C305.0,353.0 305.5,352.3 305.8,351.9 C306.1,351.4 306.2,351.1 306.4,350.8 C306.6,350.5 306.9,350.2 307.2,349.8 C307.4,349.5 307.7,348.8 307.9,348.6 C308.0,348.4 307.7,348.6 308.0,348.6 C308.3,348.6 309.0,348.5 309.5,348.4 C310.0,348.3 310.4,348.2 310.9,348.0 C311.4,347.8 311.8,347.6 312.2,347.3 C312.6,347.0 313.0,346.7 313.4,346.4 C313.7,346.0 314.0,345.6 314.3,345.2 C314.6,344.8 314.8,344.4 315.0,343.9 C315.2,343.4 315.3,343.0 315.4,342.5 C315.5,342.0 315.6,341.5 315.6,341.0 C315.6,340.5 315.5,340.0 315.4,339.5 C315.3,339.0 315.2,338.6 315.0,338.1 C314.8,337.6 314.6,337.2 314.3,336.8 C314.0,336.4 313.7,336.0 313.4,335.6 C313.0,335.3 312.5,334.9 312.2,334.7 C311.9,334.5 311.8,334.5 311.7,334.4 C311.6,334.4 311.8,334.5 311.6,334.3 C311.4,334.1 310.8,333.6 310.4,333.3 C310.0,333.0 309.5,332.7 309.0,332.5 C308.5,332.3 307.9,332.2 307.5,332.1 C307.1,332.0 306.9,332.1 306.5,332.0 C306.1,331.9 305.6,331.7 305.1,331.6 C304.6,331.5 303.9,331.5 303.5,331.4 C303.1,331.3 303.1,331.2 302.7,331.2 C302.3,331.1 301.5,331.0 300.9,331.0 C300.3,331.0 299.7,331.0 299.1,331.2 C298.6,331.3 298.0,331.5 297.4,331.7 C296.9,331.9 296.4,332.2 295.9,332.5 C295.4,332.9 294.9,333.2 294.5,333.7 C294.1,334.1 293.6,334.8 293.4,335.0 C293.1,335.3 293.3,335.2 293.2,335.2 C293.2,335.3 293.2,335.2 293.1,335.4 C292.9,335.5 292.7,336.0 292.4,336.2 C292.0,336.5 291.0,336.7 290.7,336.7 C290.4,336.8 290.7,336.7 290.6,336.8 C290.5,336.8 290.2,337.0 289.8,337.0 C289.4,337.0 288.6,336.8 288.2,336.8 C287.8,336.8 288.1,336.9 287.7,336.9 C287.2,336.9 286.2,336.7 285.7,336.7 C285.2,336.7 284.9,336.8 284.4,336.8 C284.0,336.8 283.8,336.7 283.2,336.7 C282.6,336.7 281.6,336.8 280.8,336.9 C280.0,337.1 278.9,337.5 278.5,337.6 C278.0,337.8 278.4,337.8 278.1,337.8 C277.8,337.9 276.9,338.0 276.5,338.0 C276.2,338.0 276.4,337.9 276.1,337.9 C275.7,337.9 274.9,338.1 274.4,338.1 C274.0,338.1 274.1,337.9 273.6,337.8 C273.1,337.8 272.1,337.7 271.7,337.6 C271.3,337.6 271.7,337.5 271.2,337.4 C270.8,337.2 269.8,336.9 269.1,336.7 C268.3,336.6 267.5,336.5 266.8,336.5 C266.2,336.5 265.5,336.7 265.1,336.7 C264.7,336.7 264.7,336.6 264.3,336.6 C264.0,336.6 263.3,336.8 262.9,336.8 C262.5,336.8 262.2,336.6 261.8,336.7 C261.4,336.7 260.9,336.8 260.5,336.8 C260.1,336.8 259.7,336.7 259.3,336.7 C258.9,336.7 258.2,336.8 257.9,336.8 C257.7,336.8 258.0,336.8 257.8,336.8 C257.6,336.7 257.0,336.5 256.7,336.5 C256.4,336.4 256.3,336.5 255.9,336.4 C255.5,336.3 255.0,336.0 254.4,335.9 C253.8,335.8 252.6,335.7 252.2,335.7 C251.8,335.7 252.0,335.7 252.0,335.7 C251.9,335.7 252.1,335.8 251.8,335.6 C251.6,335.5 250.7,335.0 250.4,334.8 C250.1,334.6 250.1,334.5 249.9,334.4 C249.7,334.3 249.5,334.3 249.2,334.0 C248.8,333.8 248.5,333.4 247.9,333.0 C247.4,332.7 246.2,332.1 245.9,331.9 C245.5,331.7 246.0,332.0 245.7,331.9 C245.3,331.7 244.1,331.0 243.8,330.9 C243.5,330.7 244.0,331.0 243.6,330.8 C243.3,330.6 242.1,330.0 241.7,329.8 C241.3,329.6 241.6,329.8 241.2,329.6 C240.9,329.5 240.0,329.0 239.6,328.8 C239.3,328.6 239.6,328.8 239.2,328.7 C238.9,328.5 237.9,327.9 237.5,327.8 C237.2,327.6 237.6,327.9 237.3,327.7 C236.9,327.5 235.8,326.9 235.5,326.7 C235.2,326.6 235.4,326.7 235.4,326.7 C235.4,326.7 235.7,326.9 235.4,326.7 C235.1,326.4 234.2,325.6 233.6,325.2 C232.9,324.8 232.1,324.4 231.5,324.1 C231.0,323.9 230.7,323.9 230.3,323.7 C230.0,323.6 229.8,323.4 229.4,323.2 C229.0,323.1 228.5,323.0 228.1,322.8 C227.7,322.7 227.4,322.5 227.2,322.4 C227.1,322.3 227.2,322.4 227.2,322.4 C227.2,322.4 227.5,322.5 227.1,322.3 C226.8,322.1 225.8,321.5 225.2,321.3 C224.5,321.0 223.7,320.8 223.3,320.7 C223.0,320.6 223.2,320.7 223.1,320.5 C223.0,320.4 223.0,320.4 222.7,320.1 C222.4,319.8 221.5,319.1 221.1,318.8 C220.8,318.5 221.2,318.7 220.8,318.4 C220.5,318.1 219.8,317.4 219.2,317.0 C218.6,316.6 217.6,316.2 217.3,316.0 C216.9,315.9 217.1,316.0 217.1,316.0 C217.1,316.0 217.3,316.1 217.1,316.0 C216.9,315.8 216.1,315.5 215.7,315.2 C215.4,315.0 215.2,314.6 215.0,314.4 C214.8,314.2 214.7,314.1 214.5,314.0 C214.4,313.9 214.3,313.7 214.2,313.6 C214.2,313.6 214.3,313.9 214.2,313.6 C214.2,313.3 214.2,312.4 214.0,311.7 C213.9,311.1 213.6,310.1 213.4,309.6 C213.2,309.1 212.9,309.0 213.0,308.8 C213.0,308.5 213.2,308.1 213.4,307.9 C213.6,307.6 213.9,307.5 214.0,307.4 C214.2,307.2 214.3,307.0 214.6,306.7 C214.9,306.4 215.4,306.1 215.9,305.6 C216.3,305.2 216.9,304.5 217.3,303.9 C217.8,303.2 218.2,302.2 218.4,301.9 C218.6,301.5 218.3,302.1 218.4,301.8 C218.6,301.4 219.3,300.2 219.5,299.8 C219.7,299.4 219.5,299.8 219.7,299.6 C219.9,299.4 220.2,298.9 220.5,298.7 C220.8,298.4 221.1,298.3 221.5,297.9 C221.9,297.4 222.5,296.7 222.9,296.1 C223.3,295.5 223.8,294.4 224.0,294.1 C224.2,293.8 223.9,294.1 224.0,294.1 C224.0,294.1 223.9,294.3 224.2,293.9 C224.4,293.6 225.3,292.6 225.6,292.2 C225.9,291.7 225.8,291.5 226.1,291.2 C226.4,290.9 227.0,290.5 227.3,290.3 C227.5,290.0 227.4,290.0 227.8,289.7 C228.1,289.4 228.6,289.0 229.1,288.6 C229.6,288.1 230.2,287.3 230.6,286.8 C230.9,286.3 230.9,286.0 231.2,285.6 C231.4,285.3 231.7,285.3 232.1,284.9 C232.5,284.4 233.3,283.5 233.6,283.1 C233.9,282.7 233.7,282.8 233.9,282.4 C234.2,282.1 234.6,281.7 235.0,281.1 C235.4,280.6 235.9,279.7 236.1,279.1 C236.4,278.4 236.5,277.7 236.6,277.4 C236.8,277.0 236.8,277.1 236.8,277.0 C236.9,276.9 236.7,277.3 236.9,276.9 C237.1,276.5 237.8,275.2 238.0,274.8 C238.2,274.5 237.9,275.1 238.1,274.7 C238.2,274.4 238.9,273.2 239.1,272.8 C239.2,272.5 238.9,273.2 239.1,272.8 C239.3,272.4 240.0,271.1 240.2,270.7 C240.4,270.3 240.1,270.9 240.2,270.6 C240.4,270.3 241.1,269.0 241.3,268.6 C241.5,268.3 241.1,268.9 241.3,268.5 C241.5,268.2 242.2,266.9 242.4,266.6 C242.6,266.2 242.3,266.8 242.4,266.4 C242.6,266.1 243.2,265.0 243.4,264.5 C243.7,264.0 243.7,263.5 243.9,263.2 C244.0,262.8 244.2,262.5 244.3,262.3 C244.4,262.2 244.2,262.4 244.4,262.0 C244.6,261.7 245.1,260.7 245.3,260.3 C245.5,259.9 245.5,259.8 245.5,259.7 C245.5,259.6 245.4,259.8 245.6,259.6 C245.7,259.4 246.2,258.9 246.6,258.3 C246.9,257.8 247.4,257.0 247.7,256.2 C248.0,255.5 248.3,254.5 248.4,253.9 C248.5,253.4 248.5,253.3 248.5,253.1 C248.5,253.0 248.5,253.1 248.6,252.9 C248.7,252.6 249.0,252.1 249.1,251.8 C249.3,251.5 249.2,251.4 249.4,251.1 C249.5,250.7 249.9,250.0 250.1,249.7 C250.2,249.5 249.9,249.9 250.2,249.6 C250.5,249.3 251.3,248.5 251.7,247.8 C252.1,247.2 252.5,246.5 252.8,245.8 C253.1,245.1 253.3,244.1 253.5,243.5 C253.6,242.9 253.5,242.4 253.6,242.1 C253.7,241.7 253.8,241.6 254.0,241.4 C254.1,241.3 254.0,241.5 254.3,241.2 C254.6,240.8 255.3,240.0 255.7,239.4 C256.1,238.8 256.5,238.1 256.8,237.4 C257.1,236.7 257.3,235.8 257.5,235.2 C257.6,234.6 257.5,234.4 257.6,234.0 C257.7,233.6 257.9,233.2 257.9,232.9 C258.0,232.6 257.9,232.5 258.0,232.2 C258.1,231.8 258.6,231.3 258.8,230.7 C259.0,230.1 259.3,229.2 259.5,228.5 C259.6,227.7 259.7,226.6 259.7,226.2 C259.7,225.8 259.7,226.2 259.7,226.2 C259.7,226.1 259.7,226.1 259.8,226.1 C259.8,226.0 259.8,225.7 259.9,225.6 C259.9,225.5 259.9,225.5 260.1,225.2 C260.3,225.0 260.7,224.6 261.1,224.0 C261.4,223.5 261.9,222.7 262.1,222.0 C262.4,221.3 262.7,220.2 262.8,219.8 C262.9,219.5 262.8,219.8 262.8,219.8 C262.8,219.8 262.7,220.2 262.8,219.8 C262.9,219.4 263.3,218.3 263.5,217.6 C263.6,216.9 263.6,216.1 263.7,215.7 C263.7,215.3 263.9,215.3 263.9,215.2 C264.0,215.1 263.8,215.5 264.0,215.1 C264.1,214.8 264.7,213.9 265.0,213.2 C265.3,212.5 265.5,211.6 265.7,210.9 C265.8,210.3 265.8,209.5 265.9,209.2 C265.9,208.8 266.0,209.1 266.2,208.6 C266.3,208.1 266.7,207.1 266.8,206.3 C267.0,205.6 267.0,204.5 267.1,204.0 C267.1,203.5 266.9,203.7 267.0,203.3 C267.1,202.9 267.4,202.3 267.5,201.6 C267.6,201.0 267.7,199.8 267.7,199.4 C267.8,199.0 267.7,199.6 267.8,199.2 C267.8,198.8 268.0,197.4 268.0,196.9 C268.0,196.4 267.9,196.5 267.9,196.1 C268.0,195.7 268.1,194.8 268.1,194.4 C268.1,193.9 268.0,193.8 268.0,193.4 C268.0,193.0 268.2,192.5 268.2,191.8 C268.2,191.2 268.0,190.0 267.9,189.5 C267.8,188.9 267.7,188.8 267.6,188.4 C267.6,188.1 267.6,187.5 267.5,187.2 C267.4,186.8 267.2,186.5 267.2,186.1 C267.1,185.7 267.3,185.4 267.3,184.7 C267.3,184.1 267.2,183.0 267.1,182.3 C266.9,181.7 266.7,181.2 266.6,180.9 C266.5,180.5 266.6,180.4 266.5,180.0 C266.5,179.7 266.3,179.3 266.2,178.9 C266.1,178.5 266.1,177.9 266.1,177.7 C266.1,177.5 266.1,178.1 266.1,177.7 C266.0,177.3 266.0,176.1 265.8,175.3 C265.7,174.5 265.4,173.7 265.1,173.0 C264.8,172.3 264.2,171.3 264.0,171.0 C263.9,170.6 264.2,171.3 264.0,170.9 C263.9,170.6 263.2,169.4 263.0,169.0 C262.8,168.7 263.1,169.3 263.0,168.9 C262.9,168.5 262.5,167.1 262.3,166.6 C262.2,166.2 262.2,166.7 262.1,166.3 C262.1,165.9 262.1,165.1 261.9,164.4 C261.8,163.7 261.5,162.7 261.2,162.1 C261.0,161.4 260.7,161.0 260.5,160.6 C260.3,160.3 260.5,160.3 260.3,159.9 C260.1,159.5 259.6,158.6 259.4,158.3 C259.2,157.9 259.5,158.3 259.3,157.9 C259.0,157.4 258.4,156.2 258.1,155.7 C257.8,155.2 257.5,155.1 257.4,154.8 C257.3,154.5 257.4,154.3 257.3,153.8 C257.2,153.2 256.9,152.1 256.6,151.4 C256.3,150.7 255.8,150.0 255.6,149.7 C255.5,149.3 255.7,149.7 255.5,149.3 C255.4,149.0 254.8,147.9 254.6,147.6 C254.4,147.2 254.7,147.6 254.5,147.3 C254.3,146.9 253.7,145.7 253.5,145.4 C253.3,145.0 253.6,145.6 253.4,145.2 C253.2,144.8 252.5,143.4 252.3,143.0 C252.1,142.7 252.4,143.3 252.2,143.0 C252.0,142.6 251.4,141.4 251.2,141.0 C251.0,140.6 251.1,141.0 250.9,140.7 C250.7,140.4 250.2,139.3 250.0,139.0 C249.8,138.7 250.1,139.2 249.9,138.9 C249.7,138.5 249.3,137.6 248.9,137.0 C248.5,136.3 247.7,135.5 247.4,135.1 C247.0,134.7 247.1,135.0 246.9,134.7 C246.7,134.4 246.2,133.5 246.1,133.3 C246.0,133.0 246.3,133.5 246.1,133.2 C245.9,132.8 245.3,131.7 245.0,131.1 C244.6,130.5 244.1,130.1 243.9,129.8 C243.7,129.5 243.9,129.6 243.6,129.2 C243.3,128.8 242.6,127.9 242.1,127.4 C241.6,126.9 240.9,126.4 240.6,126.2 C240.3,125.9 240.5,126.0 240.2,125.7 C240.0,125.5 239.2,124.9 238.9,124.6 C238.6,124.3 238.7,124.3 238.4,124.0 C238.1,123.7 237.3,123.2 237.0,122.9 C236.7,122.6 236.9,122.6 236.5,122.3 C236.2,122.0 235.3,121.4 235.0,121.1 C234.7,120.8 234.9,120.9 234.7,120.6 C234.4,120.4 233.8,120.0 233.5,119.7 C233.2,119.4 233.1,119.2 232.9,118.9 C232.6,118.7 232.2,118.4 231.9,118.1 C231.6,117.8 231.5,117.5 231.1,117.1 C230.7,116.7 230.0,116.1 229.4,115.7 C228.8,115.3 228.1,115.0 227.4,114.7 C226.7,114.4 225.9,114.2 225.3,114.0 C224.7,113.9 223.9,113.9 223.6,113.9 C223.2,113.8 223.4,113.8 223.3,113.8 C223.1,113.7 223.3,113.7 222.9,113.6 C222.4,113.4 221.1,113.0 220.7,112.9 C220.4,112.8 220.7,112.9 220.7,112.9 C220.7,112.9 221.0,113.0 220.6,112.9 C220.3,112.8 219.2,112.4 218.5,112.2 C217.8,112.1 217.0,112.1 216.6,112.0 C216.2,112.0 216.6,112.0 216.2,111.9 C215.7,111.9 214.7,111.7 214.0,111.7 C213.2,111.7 212.5,111.8 211.7,111.9 C211.0,112.1 210.1,112.4 209.6,112.6 C209.1,112.8 209.1,113.0 208.7,113.1 C208.3,113.2 207.8,113.1 207.3,113.2 C206.8,113.3 206.3,113.5 205.9,113.6 C205.5,113.7 205.5,113.6 205.0,113.7 C204.5,113.8 203.4,114.1 202.8,114.4 C202.2,114.6 201.6,115.0 201.2,115.2 C200.9,115.4 201.1,115.2 200.7,115.4 C200.3,115.6 199.4,116.0 198.7,116.4 C198.1,116.8 197.3,117.6 197.0,117.9 C196.7,118.1 196.9,118.0 196.9,118.0 C196.8,118.0 197.0,117.9 196.9,118.0 C196.7,118.1 196.4,118.4 196.1,118.6 C195.8,118.9 195.3,119.0 194.9,119.3 C194.5,119.6 194.1,120.0 193.8,120.2 C193.5,120.4 193.3,120.2 192.8,120.5 C192.3,120.7 191.1,121.4 190.7,121.6 C190.4,121.8 191.1,121.5 190.7,121.6 C190.3,121.7 188.9,122.1 188.5,122.3 C188.1,122.4 188.6,122.3 188.4,122.3 C188.2,122.4 187.5,122.6 187.2,122.7 C186.9,122.7 187.3,122.6 186.8,122.6 C186.3,122.7 185.0,122.7 184.1,122.9 C183.3,123.1 182.0,123.5 181.6,123.7 C181.1,123.8 181.9,123.6 181.5,123.7 C181.1,123.8 180.1,124.1 179.3,124.4 C178.6,124.7 177.7,125.2 176.9,125.7 C176.2,126.2 175.5,126.8 174.8,127.4 C174.2,128.1 173.5,129.0 173.1,129.5 C172.7,130.1 173.1,130.2 172.5,130.6 C171.9,130.9 170.5,131.1 169.6,131.5 C168.6,131.9 167.6,132.4 166.7,133.0 C165.7,133.6 164.7,134.5 164.1,135.1 C163.5,135.7 163.3,136.2 163.0,136.4 C162.8,136.7 162.9,136.5 162.6,136.8 C162.4,137.0 162.1,137.5 161.5,138.1 C161.0,138.6 159.9,139.2 159.2,140.0 C158.4,140.8 157.4,142.2 156.9,142.8 C156.4,143.4 156.6,143.4 156.4,143.7 C156.2,144.0 156.0,144.0 155.6,144.7 C155.2,145.4 154.3,147.0 153.9,147.9 C153.5,148.8 153.4,149.5 153.3,149.9 C153.1,150.3 153.2,150.2 153.1,150.3 C152.9,150.5 152.8,150.6 152.6,150.9 C152.4,151.2 152.2,151.7 152.0,152.1 C151.8,152.4 151.6,152.4 151.4,152.8 C151.1,153.2 150.5,154.4 150.4,154.7 C150.2,155.0 150.3,154.7 150.2,154.8 C150.2,154.9 150.2,155.0 150.0,155.3 C149.7,155.7 149.3,156.0 148.8,156.7 C148.3,157.5 147.3,159.5 147.0,160.1 C146.7,160.8 147.0,160.4 146.8,160.7 C146.7,161.1 146.2,161.7 146.0,162.2 C145.8,162.8 145.6,163.6 145.5,164.0 C145.4,164.3 145.3,164.2 145.3,164.4 C145.2,164.6 145.2,164.7 145.1,165.1 C144.9,165.4 144.4,166.2 144.3,166.5 C144.1,166.8 144.3,166.6 144.2,166.9 C144.0,167.3 143.6,167.7 143.3,168.6 C142.9,169.5 142.4,171.0 142.2,172.2 C141.9,173.4 141.9,175.0 141.8,175.8 C141.7,176.6 141.6,176.1 141.5,176.9 C141.4,177.6 141.3,179.5 141.1,180.3 C141.0,181.1 140.9,181.1 140.8,181.5 C140.6,181.8 140.5,181.7 140.3,182.4 C140.0,183.2 139.5,184.8 139.2,185.8 C139.0,186.9 139.1,187.9 139.0,188.7 C138.8,189.5 138.6,189.8 138.4,190.5 C138.3,191.2 138.2,192.4 138.2,192.8 C138.2,193.2 138.2,192.7 138.2,192.9 C138.2,193.0 138.2,193.2 138.1,193.6 C138.0,194.0 137.7,194.9 137.6,195.1 C137.6,195.4 137.7,194.9 137.6,195.3 C137.5,195.7 137.2,196.4 137.0,197.3 C136.8,198.3 136.7,200.1 136.7,200.8 C136.6,201.5 136.7,201.3 136.7,201.5 C136.7,201.8 136.7,202.2 136.7,202.4 C136.6,202.6 136.7,202.5 136.6,202.6 C136.5,202.8 136.4,202.7 136.2,203.4 C136.0,204.0 135.4,205.9 135.2,206.6 C135.0,207.3 135.1,207.5 135.1,207.7 C135.1,207.9 135.2,207.3 135.0,207.9 C134.8,208.4 134.2,210.4 134.1,211.1 C133.9,211.7 134.0,211.6 134.0,211.8 C133.9,212.0 133.9,211.7 133.7,212.4 C133.5,213.0 132.9,214.4 132.7,215.5 C132.5,216.5 132.5,218.1 132.4,218.7 C132.4,219.3 132.5,218.7 132.4,219.0 C132.4,219.2 132.2,219.4 132.1,220.1 C132.0,220.9 131.8,222.7 131.8,223.3 C131.7,223.9 131.8,223.7 131.8,223.8 C131.8,223.9 131.8,223.7 131.7,224.1 C131.5,224.5 131.2,225.7 131.1,226.1 C130.9,226.5 131.1,225.8 131.0,226.3 C130.8,226.8 130.3,228.2 130.1,229.1 C129.9,230.1 129.8,231.6 129.8,232.1 C129.7,232.6 129.8,232.1 129.8,232.2 C129.8,232.4 129.8,232.8 129.7,232.9 C129.7,233.1 129.7,232.9 129.6,233.3 C129.4,233.6 129.1,234.9 129.0,235.3 C128.8,235.6 129.0,235.1 128.9,235.5 C128.7,235.8 128.4,237.1 128.3,237.4 C128.1,237.8 128.3,237.3 128.1,237.7 C128.0,238.0 127.7,239.3 127.5,239.6 C127.4,240.0 127.5,239.6 127.4,239.9 C127.3,240.2 127.0,241.2 126.9,241.6 C126.8,241.9 126.8,241.6 126.6,242.1 C126.4,242.6 126.0,243.7 125.9,244.6 C125.7,245.4 125.6,246.5 125.6,247.2 C125.6,247.9 125.8,248.5 125.8,248.8 C125.7,249.2 125.7,248.8 125.5,249.2 C125.3,249.6 124.6,250.8 124.3,251.4 C124.1,251.9 124.2,252.1 124.0,252.4 C123.9,252.8 123.6,252.9 123.4,253.5 C123.2,254.1 122.9,255.0 122.7,255.8 C122.6,256.6 122.5,257.6 122.5,258.3 C122.5,258.9 122.6,259.3 122.6,259.7 C122.6,260.1 122.5,260.4 122.5,260.8 C122.5,261.2 122.6,261.8 122.7,262.3 C122.7,262.7 122.5,263.0 122.5,263.3 C122.5,263.7 122.7,263.9 122.7,264.3 C122.6,264.8 122.5,265.3 122.5,265.8 C122.5,266.3 122.6,267.1 122.7,267.4 C122.7,267.8 122.6,267.9 122.6,268.1 C122.6,268.2 122.7,267.8 122.5,268.2 C122.4,268.6 122.0,269.9 121.8,270.5 C121.7,271.2 121.8,271.7 121.7,272.1 C121.6,272.5 121.5,272.2 121.3,272.7 C121.2,273.2 120.8,274.5 120.6,275.1 C120.5,275.7 120.6,276.1 120.5,276.4 C120.4,276.7 120.3,276.8 120.2,276.9 C120.2,277.0 120.4,276.6 120.1,277.0 C119.9,277.4 119.3,278.5 118.9,279.3 C118.6,280.0 118.4,280.9 118.2,281.7 C118.0,282.5 118.0,283.8 117.9,284.3 C117.9,284.7 118.0,284.3 118.0,284.5 C117.9,284.8 117.9,285.5 117.8,285.7 C117.8,286.0 117.8,285.7 117.6,286.2 C117.4,286.7 117.0,288.0 116.8,288.8 C116.7,289.5 116.7,290.2 116.6,290.5 C116.6,290.9 116.6,290.3 116.5,290.8 C116.3,291.3 115.9,292.5 115.7,293.3 C115.5,294.2 115.5,295.4 115.5,296.0 C115.4,296.6 115.5,296.6 115.5,296.9 C115.5,297.2 115.5,297.5 115.5,297.7 C115.4,297.9 115.5,297.4 115.4,297.9 C115.2,298.3 114.7,300.0 114.6,300.4 Z" fill="#000000" stroke="none"/>
  <path d="M365.2,288.8 C364.9,288.7 363.9,288.3 363.1,288.2 C362.4,288.1 361.7,288.0 361.0,288.0 C360.3,288.0 359.6,288.1 358.9,288.2 C358.1,288.3 357.4,288.5 356.8,288.8 C356.1,289.1 355.5,289.4 354.9,289.8 C354.3,290.2 353.7,290.7 353.2,291.2 C352.7,291.7 352.2,292.3 351.8,292.9 C351.4,293.5 351.1,294.1 350.8,294.8 C350.5,295.4 350.3,296.3 350.2,296.9 C350.1,297.4 350.2,297.5 350.1,297.9 C349.9,298.3 349.6,298.7 349.3,299.3 C349.1,299.9 348.8,300.9 348.7,301.5 C348.5,302.1 348.6,302.3 348.6,302.7 C348.5,303.1 348.3,303.3 348.2,303.9 C348.1,304.5 348.0,305.9 348.0,306.3 C347.9,306.7 348.0,306.2 348.0,306.3 C348.0,306.3 348.0,306.0 347.9,306.4 C347.9,306.8 347.7,308.4 347.7,308.8 C347.6,309.2 347.7,308.9 347.7,308.9 C347.7,308.9 347.7,308.5 347.7,308.9 C347.6,309.3 347.4,310.6 347.4,311.4 C347.4,312.2 347.5,313.0 347.7,313.8 C347.8,314.6 348.2,315.7 348.4,316.2 C348.5,316.7 348.5,316.3 348.7,316.7 C348.8,317.1 349.1,318.1 349.2,318.4 C349.3,318.7 349.2,318.4 349.3,318.7 C349.4,318.9 349.6,319.6 349.7,319.9 C349.8,320.2 349.6,320.0 349.7,320.5 C349.9,321.0 350.4,322.6 350.5,323.0 C350.6,323.4 350.5,322.8 350.5,323.0 C350.5,323.2 350.6,323.8 350.6,324.1 C350.6,324.5 350.5,324.6 350.5,325.1 C350.6,325.6 350.7,326.6 350.7,327.1 C350.8,327.5 350.7,327.2 350.7,327.6 C350.7,328.0 350.8,329.1 350.9,329.5 C350.9,330.0 350.8,329.6 350.8,330.2 C350.8,330.7 350.9,331.9 351.1,332.8 C351.2,333.6 351.6,334.7 351.8,335.2 C352.0,335.8 352.1,335.6 352.2,335.9 C352.3,336.3 352.3,336.9 352.3,337.2 C352.3,337.4 352.2,337.0 352.3,337.4 C352.3,337.9 352.4,339.1 352.5,339.9 C352.7,340.7 352.9,341.5 353.2,342.3 C353.6,343.1 354.2,344.1 354.4,344.5 C354.6,344.9 354.4,344.5 354.5,344.6 C354.5,344.6 354.5,344.5 354.5,344.7 C354.5,344.9 354.6,345.4 354.6,345.8 C354.6,346.1 354.5,346.3 354.5,346.8 C354.5,347.4 354.6,348.5 354.8,349.3 C354.9,350.1 355.2,350.9 355.5,351.6 C355.7,352.3 356.2,353.0 356.4,353.3 C356.6,353.7 356.3,353.4 356.5,353.7 C356.7,354.1 357.4,355.4 357.6,355.7 C357.7,356.1 357.4,355.5 357.6,355.9 C357.8,356.2 358.5,357.5 358.6,357.8 C358.8,358.2 358.6,357.8 358.7,358.0 C358.8,358.1 358.9,358.2 359.0,358.6 C359.1,359.0 359.0,359.7 359.2,360.3 C359.3,361.0 359.6,361.9 359.9,362.6 C360.2,363.3 360.8,364.3 361.0,364.7 C361.2,365.0 360.8,364.4 361.0,364.7 C361.2,365.1 361.7,366.1 362.1,366.8 C362.5,367.4 363.1,368.1 363.6,368.6 C364.1,369.1 364.6,369.4 364.9,369.7 C365.2,370.0 365.1,370.0 365.5,370.3 C365.8,370.6 366.6,371.1 366.9,371.5 C367.1,371.8 367.0,371.8 367.3,372.2 C367.6,372.7 368.4,373.7 368.7,374.0 C369.0,374.3 368.8,374.0 368.9,374.2 C369.0,374.3 369.2,374.4 369.4,374.8 C369.6,375.1 369.9,375.8 370.2,376.2 C370.4,376.5 370.6,376.6 370.8,377.0 C371.0,377.3 371.1,377.7 371.5,378.2 C371.8,378.7 372.7,379.7 373.0,380.1 C373.3,380.4 372.9,379.9 373.2,380.2 C373.4,380.5 374.1,381.5 374.6,382.0 C375.2,382.6 376.0,383.2 376.5,383.5 C377.1,383.9 377.6,384.1 377.9,384.3 C378.3,384.5 378.1,384.5 378.5,384.8 C379.0,385.1 380.0,385.7 380.7,385.9 C381.3,386.2 382.2,386.4 382.5,386.5 C382.9,386.6 382.4,386.5 382.8,386.7 C383.1,386.9 384.3,387.5 384.7,387.7 C385.0,387.9 384.5,387.7 384.8,387.8 C385.1,388.0 386.1,388.5 386.4,388.7 C386.8,388.9 386.4,388.8 386.8,389.0 C387.3,389.3 388.6,390.0 389.1,390.3 C389.6,390.5 389.7,390.4 390.1,390.5 C390.4,390.7 390.7,391.0 391.3,391.2 C391.9,391.4 392.9,391.8 393.8,392.0 C394.6,392.1 395.7,392.2 396.3,392.2 C397.0,392.2 397.1,392.1 397.5,392.1 C398.0,392.1 398.2,392.2 398.9,392.2 C399.5,392.2 400.6,392.1 401.5,392.0 C402.3,391.8 403.3,391.5 404.0,391.2 C404.6,390.9 405.2,390.5 405.6,390.3 C406.0,390.2 405.8,390.3 406.1,390.2 C406.4,390.0 407.0,389.6 407.4,389.5 C407.8,389.3 407.7,389.5 408.2,389.2 C408.8,389.0 410.1,388.3 410.5,388.0 C411.0,387.7 410.6,387.9 411.0,387.7 C411.3,387.5 412.0,387.2 412.6,386.8 C413.2,386.4 414.1,385.6 414.6,385.1 C415.1,384.7 415.1,384.4 415.4,384.1 C415.7,383.8 416.1,383.7 416.4,383.3 C416.7,383.0 417.2,382.4 417.5,382.1 C417.7,381.7 417.8,381.9 418.2,381.5 C418.6,381.0 419.3,380.2 419.8,379.5 C420.3,378.8 420.7,378.0 421.0,377.2 C421.3,376.4 421.6,375.4 421.8,374.7 C421.9,374.1 421.8,373.6 421.9,373.2 C422.0,372.9 422.2,372.9 422.3,372.6 C422.4,372.3 422.4,372.0 422.6,371.6 C422.7,371.2 423.0,371.0 423.2,370.4 C423.4,369.9 423.7,368.8 423.8,368.4 C423.9,368.0 423.7,368.6 423.9,368.2 C424.2,367.8 424.8,366.8 425.1,366.1 C425.4,365.3 425.6,364.4 425.8,363.8 C425.9,363.2 425.9,362.7 425.9,362.4 C426.0,362.1 426.1,362.1 426.2,361.9 C426.3,361.8 426.4,361.8 426.6,361.5 C426.9,361.3 427.2,360.8 427.5,360.5 C427.8,360.2 428.0,360.2 428.5,359.7 C428.9,359.3 429.5,358.5 430.0,357.9 C430.4,357.2 430.8,356.4 431.1,355.8 C431.4,355.2 431.4,354.5 431.6,354.2 C431.7,353.8 431.8,354.0 432.0,353.6 C432.3,353.2 432.9,352.0 433.1,351.5 C433.4,351.1 433.2,351.2 433.3,350.9 C433.5,350.5 434.0,349.8 434.1,349.4 C434.3,349.0 434.3,348.8 434.4,348.5 C434.6,348.1 434.9,347.6 435.1,347.2 C435.3,346.9 435.1,346.7 435.3,346.4 C435.6,346.0 436.0,345.7 436.4,345.1 C436.7,344.6 437.3,343.5 437.5,343.1 C437.7,342.6 437.5,342.9 437.6,342.5 C437.8,342.2 438.2,341.6 438.5,340.9 C438.7,340.3 439.0,339.2 439.2,338.7 C439.3,338.2 439.0,338.4 439.2,338.0 C439.4,337.7 440.1,337.1 440.5,336.5 C440.8,335.9 441.3,335.0 441.5,334.5 C441.8,334.0 441.7,333.8 441.9,333.4 C442.0,333.1 442.3,332.8 442.4,332.3 C442.6,331.9 442.8,331.0 442.9,330.7 C443.1,330.3 443.1,330.5 443.2,330.1 C443.4,329.8 443.6,328.9 443.8,328.4 C443.9,328.0 444.1,328.1 444.4,327.6 C444.7,327.2 445.1,326.5 445.3,325.9 C445.6,325.3 445.7,324.5 445.9,324.1 C446.1,323.6 446.3,323.6 446.6,323.2 C446.9,322.8 447.2,322.2 447.4,321.6 C447.7,321.1 447.9,320.2 448.0,319.9 C448.1,319.6 448.0,319.8 448.0,319.7 C448.0,319.6 448.0,319.7 448.2,319.4 C448.3,319.0 448.5,318.3 448.7,317.7 C448.8,317.1 448.8,316.6 448.8,316.0 C448.8,315.4 448.7,314.6 448.7,314.3 C448.6,313.9 448.5,314.1 448.5,313.9 C448.6,313.7 448.8,313.2 448.9,312.9 C448.9,312.6 448.9,312.2 448.9,312.1 C449.0,312.0 448.9,312.3 449.0,312.0 C449.0,311.8 449.3,310.9 449.4,310.6 C449.5,310.3 449.4,310.5 449.4,310.4 C449.5,310.2 449.6,310.1 449.7,309.8 C449.9,309.5 450.1,308.9 450.1,308.4 C450.2,308.0 450.3,307.5 450.3,307.0 C450.3,306.5 450.2,306.0 450.1,305.6 C450.1,305.1 449.9,304.6 449.7,304.2 C449.6,303.8 449.3,303.3 449.1,302.9 C448.8,302.6 448.5,302.2 448.2,301.8 C447.8,301.5 447.4,301.2 447.1,300.9 C446.7,300.7 446.2,300.4 445.8,300.3 C445.4,300.1 444.9,299.9 444.4,299.9 C444.0,299.8 443.5,299.7 443.0,299.7 C442.5,299.7 442.0,299.8 441.6,299.9 C441.1,299.9 440.6,300.1 440.2,300.3 C439.8,300.4 439.3,300.7 438.9,300.9 C438.6,301.2 438.2,301.5 437.8,301.8 C437.5,302.2 437.1,302.7 436.9,302.9 C436.7,303.2 436.7,303.5 436.6,303.6 C436.5,303.7 436.7,303.5 436.5,303.7 C436.3,303.9 435.8,304.4 435.5,304.8 C435.3,305.3 435.0,305.9 434.8,306.2 C434.7,306.4 434.9,306.2 434.8,306.3 C434.7,306.4 434.5,306.6 434.3,306.8 C434.2,307.1 434.1,307.4 433.9,307.7 C433.6,308.0 433.3,308.3 433.0,308.8 C432.7,309.2 432.4,309.7 432.2,310.2 C432.0,310.7 431.8,311.5 431.8,311.8 C431.7,312.1 431.8,311.8 431.7,311.9 C431.7,311.9 432.0,311.7 431.7,311.9 C431.5,312.1 430.7,312.6 430.3,313.1 C429.8,313.5 429.3,314.3 429.1,314.5 C428.9,314.8 429.2,314.5 429.0,314.6 C428.9,314.7 428.7,314.7 428.3,315.0 C427.9,315.3 427.2,315.8 426.7,316.3 C426.2,316.8 425.6,317.6 425.4,317.9 C425.1,318.3 425.3,318.1 425.1,318.4 C424.9,318.7 424.2,319.4 423.9,319.8 C423.7,320.2 423.7,320.4 423.5,320.7 C423.3,321.0 422.8,321.4 422.6,321.7 C422.4,322.1 422.4,322.3 422.1,322.6 C421.8,322.9 421.3,323.2 420.8,323.7 C420.4,324.2 419.8,324.8 419.4,325.5 C419.0,326.1 418.5,327.1 418.3,327.5 C418.1,327.8 418.4,327.3 418.3,327.6 C418.1,328.0 417.5,328.9 417.2,329.6 C416.9,330.3 416.7,331.4 416.6,331.8 C416.4,332.2 416.6,331.9 416.5,332.0 C416.5,332.0 416.7,331.8 416.5,332.1 C416.2,332.4 415.5,333.2 415.1,333.8 C414.6,334.5 414.2,335.5 414.0,335.9 C413.8,336.3 414.0,335.9 413.8,336.3 C413.7,336.6 413.1,337.7 412.9,338.0 C412.7,338.4 413.0,338.0 412.8,338.4 C412.6,338.7 412.1,339.7 411.9,340.0 C411.8,340.3 412.0,339.8 411.7,340.2 C411.4,340.5 410.6,341.4 410.2,342.0 C409.8,342.7 409.3,343.6 409.1,344.1 C408.8,344.6 408.8,345.0 408.7,345.3 C408.7,345.5 408.8,345.2 408.7,345.3 C408.5,345.5 408.1,345.7 407.7,346.2 C407.2,346.6 406.6,347.4 406.1,348.0 C405.7,348.7 405.2,349.7 405.0,350.1 C404.9,350.4 405.2,349.8 405.0,350.1 C404.8,350.4 404.2,351.6 404.0,352.0 C403.8,352.3 404.1,351.8 403.9,352.2 C403.6,352.5 403.0,353.7 402.7,354.3 C402.5,354.8 402.6,355.0 402.4,355.3 C402.2,355.6 401.9,355.8 401.6,356.3 C401.3,356.8 400.7,357.8 400.4,358.4 C400.2,359.1 400.1,359.8 399.9,360.1 C399.8,360.4 399.8,360.2 399.6,360.5 C399.4,360.8 399.0,361.7 398.8,362.0 C398.6,362.4 398.7,362.1 398.4,362.5 C398.1,363.0 397.4,364.4 397.2,364.8 C397.0,365.2 397.2,365.0 397.1,365.0 C397.1,365.0 397.3,365.0 397.0,365.0 C396.8,364.9 396.0,364.7 395.6,364.5 C395.2,364.4 395.2,364.3 394.8,364.1 C394.4,364.0 393.5,363.7 393.1,363.6 C392.7,363.5 393.1,363.5 392.6,363.3 C392.1,363.1 390.7,362.7 390.2,362.6 C389.7,362.5 389.7,362.6 389.5,362.5 C389.3,362.5 389.5,362.5 389.3,362.4 C389.1,362.2 388.7,361.6 388.5,361.4 C388.3,361.2 388.6,361.5 388.4,361.1 C388.1,360.8 387.2,359.7 386.9,359.3 C386.6,359.0 386.8,359.3 386.7,359.2 C386.6,359.1 386.6,359.2 386.4,358.9 C386.2,358.5 385.9,357.7 385.5,357.1 C385.1,356.6 384.4,355.7 384.1,355.4 C383.7,355.0 383.7,355.1 383.5,354.9 C383.3,354.7 383.1,354.6 383.0,354.3 C382.9,354.0 383.0,353.6 382.9,353.1 C382.8,352.5 382.4,351.3 382.2,350.8 C382.0,350.2 381.8,350.1 381.7,349.8 C381.5,349.4 381.5,349.0 381.3,348.6 C381.2,348.2 380.9,347.9 380.7,347.5 C380.6,347.2 380.6,346.8 380.4,346.4 C380.2,346.0 380.0,345.7 379.8,345.3 C379.7,345.0 379.6,344.5 379.5,344.3 C379.5,344.1 379.6,344.6 379.5,344.3 C379.5,343.9 379.3,342.6 379.3,342.2 C379.3,341.8 379.4,342.3 379.4,341.8 C379.3,341.3 379.3,340.2 379.1,339.4 C379.0,338.6 378.6,337.5 378.4,337.0 C378.2,336.5 378.3,336.8 378.2,336.6 C378.1,336.3 377.9,335.8 377.9,335.5 C377.8,335.3 377.9,335.1 377.9,334.9 C377.9,334.7 377.8,334.9 377.9,334.5 C377.9,334.1 378.1,333.1 378.1,332.3 C378.1,331.5 378.0,330.5 377.8,329.8 C377.7,329.0 377.4,328.3 377.3,327.9 C377.2,327.6 377.3,327.8 377.3,327.6 C377.3,327.5 377.2,327.5 377.3,327.1 C377.3,326.6 377.4,325.6 377.5,325.1 C377.5,324.6 377.4,324.6 377.4,324.1 C377.4,323.7 377.5,323.0 377.5,322.5 C377.5,322.0 377.4,321.3 377.4,320.9 C377.4,320.5 377.5,320.6 377.5,320.0 C377.4,319.4 377.4,318.2 377.2,317.3 C377.0,316.5 376.8,315.6 376.4,314.8 C376.1,314.0 375.5,312.9 375.2,312.5 C374.9,312.0 375.0,312.4 374.8,312.0 C374.6,311.7 374.1,310.7 374.0,310.4 C373.8,310.2 374.1,310.7 373.9,310.4 C373.7,310.0 373.1,308.8 372.9,308.4 C372.6,308.0 372.5,308.0 372.4,307.8 C372.3,307.6 372.2,307.7 372.2,307.4 C372.1,307.2 372.1,306.6 372.1,306.4 C372.1,306.2 372.0,306.3 372.0,306.3 C372.0,306.2 372.1,306.5 372.0,306.3 C372.0,306.0 371.9,305.2 371.9,304.8 C371.9,304.4 372.1,304.3 372.2,303.8 C372.3,303.2 372.4,302.3 372.4,301.6 C372.4,300.8 372.3,299.8 372.2,299.3 C372.1,298.8 372.0,298.9 372.0,298.5 C371.9,298.1 371.9,297.5 371.8,296.9 C371.7,296.2 371.5,295.4 371.2,294.8 C370.9,294.1 370.6,293.5 370.2,292.9 C369.8,292.3 369.3,291.7 368.8,291.2 C368.3,290.7 367.7,290.2 367.1,289.8 C366.5,289.4 365.5,289.0 365.2,288.8 Z" fill="#000000" stroke="none"/>
</svg>