<svg xmlns="http://www.w3.org/2000/svg" width="16" height="16" viewBox="0 -683 1877.9 840.8">
  <defs>
    <path id="R" d="M739 531C739 582 713 621 662 649C621 672 572 683 517 683L235 683C212 683 202 682 202 659C202 652 205 647 211 646C221 645 229 644 234 644C264 643 281 641 286 640C291 639 294 636 294 631C294 629 293 623 290 613L158 82C153 60 143 46 128 41C121 39 103 38 72 38C50 38 41 37 41 15C41 4 47-1 59 0L183 3L309 0C325-1 333 8 333 23C333 33 322 38 301 38C261 38 241 43 241 52C241 52 242 54 244 68L308 327L423 327C492 327 527 298 527 241C527 232 522 210 513 174C502 132 497 104 497 89C497 13 556-22 632-22C660-22 687-9 714 16C741 41 755 68 755 96C755 106 750 111 739 111C732 111 726 106 723 95C712 64 698 41 682 28C666 15 651 8 636 8C613 8 601 27 601 64C601 88 604 125 611 176C614 197 615 212 615 223C615 276 587 315 531 339C625 362 739 429 739 531M609 616C629 603 639 581 639 550C639 530 635 507 626 480C599 398 531 357 422 357L316 357L379 610C384 631 392 642 403 643C408 644 428 644 463 644C528 644 566 642 609 616Z"/>
    <path id="v" d="M369 391C369 383 378 370 394 350C410 330 418 307 418 281C418 252 404 203 375 134C354 86 306 18 247 18C201 18 178 45 178 100C178 139 197 208 235 307C243 328 247 345 247 357C247 407 213 442 163 442C119 442 84 417 59 367C39 326 29 300 29 287C29 278 34 273 45 273C58 273 60 279 64 293C87 373 119 413 160 413C173 413 180 404 180 385C180 369 175 347 164 318C127 219 108 152 108 115C108 64 125 29 159 10C186-4 214-11 243-11C332-11 394 85 420 162C452 256 468 325 468 369C468 418 452 442 421 442C396 442 369 416 369 391Z"/>
    <path id="a" d="M498 144C498 153 493 158 482 158C474 158 468 151 465 137C445 58 421 18 394 18C377 18 368 32 368 60C368 73 372 97 381 132L438 357C443 376 445 387 445 392C445 412 434 422 412 422C391 422 377 410 370 387C349 424 319 442 281 442C216 442 159 409 109 343C63 281 40 217 40 150C40 63 91-11 175-11C218-11 260 12 300 58C311 20 345-11 392-11C461-11 482 70 498 144M341 374C350 353 355 339 355 330C355 326 354 321 353 314L304 122C301 111 294 99 285 87C248 41 212 18 177 18C138 18 118 48 118 107C118 131 124 167 136 215C157 300 187 357 224 388C244 405 263 413 282 413C309 413 329 400 341 374Z"/>
    <path id="r" d="M436 374C436 416 395 442 351 442C302 442 261 419 227 372C217 411 183 442 136 442C95 442 65 410 44 345C34 312 29 293 29 287C29 278 34 273 45 273C50 273 53 274 56 276C61 285 64 292 65 299C83 375 106 413 133 413C150 413 159 399 159 371C159 358 154 331 144 290L87 63C84 50 78 24 78 19C78-1 89-11 110-11C130-11 143-1 150 19L169 91C180 134 187 162 190 175L221 303C223 311 231 324 244 343C271 381 302 413 351 413C363 413 373 411 382 406C352 397 337 378 337 351C337 325 351 312 378 312C411 312 436 341 436 374Z"/>
  </defs>
  <g fill="currentColor" stroke="none" transform="scale(1,-1)">
    <g>
      <g>
        <use href="#R"/>
        <g transform="translate(792,-150) scale(0.707)">
          <use href="#v"/>
          <use href="#a" transform="translate(485,0)"/>
          <use href="#r" transform="translate(1014,0)"/>
        </g>
      </g>
    </g>
  </g>
</svg>
